<mxfile host="app.diagrams.net" modified="2022-11-15T15:31:47.941Z" agent="5.0 (Windows NT 10.0; Win64; x64) AppleWebKit/537.36 (KHTML, like Gecko) Chrome/107.0.0.0 Safari/537.36" etag="GiOBKlrUzYMlajv1vciK" version="20.5.3" type="github">
  <diagram id="AGtdn2BZx0UyPENdEEa0" name="Page-1">
    <mxGraphModel dx="868" dy="882" grid="1" gridSize="10" guides="1" tooltips="1" connect="1" arrows="1" fold="1" page="0" pageScale="1" pageWidth="850" pageHeight="1100" math="0" shadow="0">
      <root>
        <mxCell id="0" />
        <mxCell id="1" parent="0" />
        <mxCell id="Kow95EciukWXHTNGfs2W-3" value="" style="edgeStyle=orthogonalEdgeStyle;rounded=0;orthogonalLoop=1;jettySize=auto;html=1;" parent="1" source="Kow95EciukWXHTNGfs2W-1" target="Kow95EciukWXHTNGfs2W-2" edge="1">
          <mxGeometry relative="1" as="geometry" />
        </mxCell>
        <mxCell id="Kow95EciukWXHTNGfs2W-1" value="&lt;p class=&quot;MsoNormal&quot;&gt;&lt;span style=&quot;mso-spacerun:&#39;yes&#39;;font-family:Arial;font-size:11.0000pt;&quot; dir=&quot;LTR&quot;&gt;If BP is above goal&lt;/span&gt;&lt;/p&gt;" style="rounded=0;whiteSpace=wrap;html=1;" parent="1" vertex="1">
          <mxGeometry x="80" y="50" width="120" height="60" as="geometry" />
        </mxCell>
        <mxCell id="Kow95EciukWXHTNGfs2W-5" value="" style="edgeStyle=orthogonalEdgeStyle;rounded=0;orthogonalLoop=1;jettySize=auto;html=1;" parent="1" source="Kow95EciukWXHTNGfs2W-2" target="Kow95EciukWXHTNGfs2W-4" edge="1">
          <mxGeometry relative="1" as="geometry" />
        </mxCell>
        <mxCell id="Kow95EciukWXHTNGfs2W-8" value="" style="edgeStyle=orthogonalEdgeStyle;rounded=0;orthogonalLoop=1;jettySize=auto;html=1;" parent="1" source="Kow95EciukWXHTNGfs2W-2" target="Kow95EciukWXHTNGfs2W-7" edge="1">
          <mxGeometry relative="1" as="geometry" />
        </mxCell>
        <mxCell id="Kow95EciukWXHTNGfs2W-2" value="&lt;p class=&quot;MsoNormal&quot;&gt;&lt;span style=&quot;mso-spacerun:&#39;yes&#39;;font-family:Arial;font-size:11.0000pt;&quot; dir=&quot;LTR&quot;&gt;begin Amlodipine 2.5mg daily&lt;/span&gt;&lt;/p&gt;" style="rounded=0;whiteSpace=wrap;html=1;" parent="1" vertex="1">
          <mxGeometry x="80" y="150" width="120" height="60" as="geometry" />
        </mxCell>
        <mxCell id="Kow95EciukWXHTNGfs2W-4" value="&lt;p class=&quot;MsoNormal&quot;&gt;&lt;span style=&quot;mso-spacerun:&#39;yes&#39;;font-family:Arial;font-size:11.0000pt;&quot; dir=&quot;LTR&quot;&gt;Increase medicine for 1 week (Amlodipine 2.5mg daily) &lt;font color=&quot;#ff0000&quot;&gt;?&lt;/font&gt;&lt;/span&gt;&lt;/p&gt;" style="rounded=0;whiteSpace=wrap;html=1;" parent="1" vertex="1">
          <mxGeometry x="80" y="290" width="120" height="80" as="geometry" />
        </mxCell>
        <mxCell id="Kow95EciukWXHTNGfs2W-6" value="if weeks average BP&lt;br&gt;&amp;nbsp;is not at goal &amp;amp; &lt;br&gt;no side effects" style="text;html=1;align=center;verticalAlign=middle;resizable=0;points=[];autosize=1;strokeColor=none;fillColor=none;" parent="1" vertex="1">
          <mxGeometry x="140" y="220" width="130" height="60" as="geometry" />
        </mxCell>
        <mxCell id="Kow95EciukWXHTNGfs2W-11" value="" style="edgeStyle=orthogonalEdgeStyle;rounded=0;orthogonalLoop=1;jettySize=auto;html=1;" parent="1" source="Kow95EciukWXHTNGfs2W-7" target="Kow95EciukWXHTNGfs2W-10" edge="1">
          <mxGeometry relative="1" as="geometry" />
        </mxCell>
        <mxCell id="Kow95EciukWXHTNGfs2W-14" value="" style="edgeStyle=orthogonalEdgeStyle;rounded=0;orthogonalLoop=1;jettySize=auto;html=1;" parent="1" source="Kow95EciukWXHTNGfs2W-7" target="Kow95EciukWXHTNGfs2W-13" edge="1">
          <mxGeometry relative="1" as="geometry">
            <Array as="points">
              <mxPoint x="530" y="180" />
            </Array>
          </mxGeometry>
        </mxCell>
        <mxCell id="Kow95EciukWXHTNGfs2W-7" value="&lt;p class=&quot;MsoNormal&quot;&gt;&lt;span style=&quot;mso-spacerun:&#39;yes&#39;;font-family:Arial;font-size:11.0000pt;&quot; dir=&quot;LTR&quot;&gt;reduce dose for 1 week &lt;font color=&quot;#ff0000&quot;&gt;?&lt;/font&gt;&lt;/span&gt;&lt;/p&gt;" style="rounded=0;whiteSpace=wrap;html=1;" parent="1" vertex="1">
          <mxGeometry x="305" y="150" width="120" height="60" as="geometry" />
        </mxCell>
        <mxCell id="Kow95EciukWXHTNGfs2W-9" value="if side effects" style="text;html=1;align=center;verticalAlign=middle;resizable=0;points=[];autosize=1;strokeColor=none;fillColor=none;" parent="1" vertex="1">
          <mxGeometry x="210" y="150" width="90" height="30" as="geometry" />
        </mxCell>
        <mxCell id="Kow95EciukWXHTNGfs2W-15" style="edgeStyle=orthogonalEdgeStyle;rounded=0;orthogonalLoop=1;jettySize=auto;html=1;exitX=1;exitY=0.5;exitDx=0;exitDy=0;" parent="1" source="Kow95EciukWXHTNGfs2W-10" target="Kow95EciukWXHTNGfs2W-13" edge="1">
          <mxGeometry relative="1" as="geometry">
            <Array as="points">
              <mxPoint x="530" y="330" />
            </Array>
          </mxGeometry>
        </mxCell>
        <mxCell id="Kow95EciukWXHTNGfs2W-10" value="&lt;p class=&quot;MsoNormal&quot;&gt;&lt;font face=&quot;Arial&quot;&gt;&lt;span style=&quot;font-size: 14.6667px;&quot;&gt;stop&amp;nbsp;&lt;/span&gt;&lt;/font&gt;&lt;span style=&quot;font-size: 14.6667px; font-family: Arial; background-color: initial;&quot;&gt;Amlodipine. Start Losartan and titrate as before &lt;font color=&quot;#ff0000&quot;&gt;?&lt;/font&gt;&lt;/span&gt;&lt;/p&gt;" style="rounded=0;whiteSpace=wrap;html=1;" parent="1" vertex="1">
          <mxGeometry x="287.5" y="290" width="155" height="80" as="geometry" />
        </mxCell>
        <mxCell id="Kow95EciukWXHTNGfs2W-12" value="if side effects&lt;br&gt;&amp;nbsp;not gone" style="text;html=1;align=center;verticalAlign=middle;resizable=0;points=[];autosize=1;strokeColor=none;fillColor=none;" parent="1" vertex="1">
          <mxGeometry x="360" y="230" width="90" height="40" as="geometry" />
        </mxCell>
        <mxCell id="Kow95EciukWXHTNGfs2W-17" style="edgeStyle=orthogonalEdgeStyle;rounded=0;orthogonalLoop=1;jettySize=auto;html=1;exitX=1;exitY=0.5;exitDx=0;exitDy=0;entryX=-0.008;entryY=0.617;entryDx=0;entryDy=0;entryPerimeter=0;fontSize=10;" parent="1" source="Kow95EciukWXHTNGfs2W-13" target="Kow95EciukWXHTNGfs2W-16" edge="1">
          <mxGeometry relative="1" as="geometry" />
        </mxCell>
        <mxCell id="Kow95EciukWXHTNGfs2W-13" value="&lt;p class=&quot;MsoNormal&quot;&gt;&lt;span style=&quot;font-family: Arial;&quot; dir=&quot;LTR&quot;&gt;&lt;font style=&quot;font-size: 10px;&quot;&gt;If BP still&lt;/font&gt;&lt;/span&gt;&lt;/p&gt;&lt;p class=&quot;MsoNormal&quot;&gt;&lt;span style=&quot;font-family: Arial;&quot; dir=&quot;LTR&quot;&gt;&lt;font style=&quot;font-size: 10px;&quot;&gt;&amp;nbsp;not at goal&lt;/font&gt;&lt;/span&gt;&lt;/p&gt;" style="rhombus;whiteSpace=wrap;html=1;rounded=0;" parent="1" vertex="1">
          <mxGeometry x="480" y="220" width="100" height="90" as="geometry" />
        </mxCell>
        <mxCell id="Kow95EciukWXHTNGfs2W-21" value="" style="edgeStyle=orthogonalEdgeStyle;rounded=0;orthogonalLoop=1;jettySize=auto;html=1;fontSize=12;fontColor=#FF0000;" parent="1" source="Kow95EciukWXHTNGfs2W-16" target="Kow95EciukWXHTNGfs2W-20" edge="1">
          <mxGeometry relative="1" as="geometry" />
        </mxCell>
        <mxCell id="Kow95EciukWXHTNGfs2W-27" value="" style="edgeStyle=orthogonalEdgeStyle;rounded=0;orthogonalLoop=1;jettySize=auto;html=1;fontSize=12;fontColor=#FF0000;" parent="1" source="Kow95EciukWXHTNGfs2W-16" target="Kow95EciukWXHTNGfs2W-26" edge="1">
          <mxGeometry relative="1" as="geometry" />
        </mxCell>
        <mxCell id="Kow95EciukWXHTNGfs2W-16" value="&lt;p class=&quot;MsoNormal&quot;&gt;&lt;span style=&quot;font-family: Arial; font-size: 12px;&quot; dir=&quot;LTR&quot;&gt;add Lisinopril 5mg increase dose every week up to 40mg &lt;font color=&quot;#ff0000&quot;&gt;?&lt;/font&gt;&lt;/span&gt;&lt;/p&gt;" style="whiteSpace=wrap;html=1;rounded=0;fontSize=10;" parent="1" vertex="1">
          <mxGeometry x="630" y="230" width="120" height="60" as="geometry" />
        </mxCell>
        <mxCell id="Kow95EciukWXHTNGfs2W-18" value="YES" style="text;html=1;align=center;verticalAlign=middle;resizable=0;points=[];autosize=1;strokeColor=none;fillColor=none;fontSize=10;" parent="1" vertex="1">
          <mxGeometry x="580" y="235" width="40" height="30" as="geometry" />
        </mxCell>
        <mxCell id="Kow95EciukWXHTNGfs2W-19" value="&lt;h1&gt;&lt;span style=&quot;background-color: initial;&quot;&gt;GOAL&lt;/span&gt;&lt;/h1&gt;&lt;h1&gt;&lt;span style=&quot;font-size: 10px; font-weight: 400;&quot;&gt;diastolic BP less than 80 and systolic BP less than 140&lt;/span&gt;&lt;br&gt;&lt;/h1&gt;" style="text;html=1;strokeColor=none;fillColor=#D4E1F5;spacing=5;spacingTop=-20;whiteSpace=wrap;overflow=hidden;rounded=0;fontSize=10;" parent="1" vertex="1">
          <mxGeometry x="330" y="-60" width="190" height="100" as="geometry" />
        </mxCell>
        <mxCell id="Kow95EciukWXHTNGfs2W-20" value="&lt;p class=&quot;MsoNormal&quot;&gt;&lt;font face=&quot;Arial&quot;&gt;&lt;span style=&quot;font-size: 12px;&quot;&gt;decrease dose for 1 week&lt;/span&gt;&lt;/font&gt;&lt;br&gt;&lt;/p&gt;" style="whiteSpace=wrap;html=1;rounded=0;fontSize=10;" parent="1" vertex="1">
          <mxGeometry x="850" y="235" width="120" height="50" as="geometry" />
        </mxCell>
        <mxCell id="Kow95EciukWXHTNGfs2W-22" value="&lt;span style=&quot;color: rgb(0, 0, 0);&quot;&gt;if side effects&lt;/span&gt;" style="text;html=1;align=center;verticalAlign=middle;resizable=0;points=[];autosize=1;strokeColor=none;fillColor=none;fontSize=12;fontColor=#FF0000;" parent="1" vertex="1">
          <mxGeometry x="750" y="235" width="90" height="30" as="geometry" />
        </mxCell>
        <mxCell id="Kow95EciukWXHTNGfs2W-26" value="&lt;p class=&quot;MsoNormal&quot;&gt;&lt;font face=&quot;Arial&quot;&gt;&lt;span style=&quot;font-size: 12px;&quot;&gt;add Chlorthalidone 12.5 mg increase after 1 week to 25mg&lt;/span&gt;&lt;/font&gt;&lt;br&gt;&lt;/p&gt;" style="whiteSpace=wrap;html=1;rounded=0;fontSize=10;" parent="1" vertex="1">
          <mxGeometry x="630" y="340" width="120" height="60" as="geometry" />
        </mxCell>
        <mxCell id="Kow95EciukWXHTNGfs2W-28" value="&lt;font color=&quot;#000000&quot;&gt;If BP still not controlled&lt;/font&gt;" style="text;html=1;align=center;verticalAlign=middle;resizable=0;points=[];autosize=1;strokeColor=none;fillColor=none;fontSize=12;fontColor=#FF0000;" parent="1" vertex="1">
          <mxGeometry x="680" y="300" width="150" height="30" as="geometry" />
        </mxCell>
      </root>
    </mxGraphModel>
  </diagram>
</mxfile>
